<svg width="513" height="415" viewBox="0 0 513 415" fill="none" xmlns="http://www.w3.org/2000/svg">
<path d="M56.0037 209.923L55.8904 209.825L54.3443 208.483C53.8337 208.035 53.3271 207.587 52.8252 207.139L50.1631 210.12C48.1182 208.294 46.1403 206.465 44.2328 204.628L44.2335 204.627L47.0088 201.747C45.1243 199.932 43.3085 198.113 41.5612 196.291L38.6761 199.057C36.7543 197.053 34.9094 195.046 33.1436 193.033L36.1508 190.396C34.4249 188.428 32.7755 186.459 31.2018 184.488L28.0785 186.982C26.3535 184.822 24.715 182.659 23.1612 180.494L26.4088 178.164C24.8807 176.035 23.4383 173.906 22.0791 171.779L18.71 173.931C17.2284 171.613 15.8421 169.294 14.5475 166.976L18.0374 165.028C16.7653 162.75 15.586 160.477 14.4978 158.209L10.8946 159.938C9.96317 157.997 9.09243 156.06 8.2864 154.125L7.6304 152.516L11.3448 151.033C10.382 148.621 9.5201 146.217 8.75459 143.823L4.94698 145.04C4.11351 142.434 3.38812 139.837 2.77111 137.252L6.66089 136.323C6.05757 133.794 5.5603 131.279 5.16588 128.78L1.21603 129.403C0.794621 126.733 0.485543 124.078 0.284497 121.442L4.27164 121.138C4.07419 118.549 3.98617 115.979 4.00233 113.432L0.00344936 113.406C0.0205029 110.719 0.148451 108.055 0.384624 105.417L4.36762 105.773C4.59794 103.2 4.93527 100.653 5.37442 98.1355L1.43424 97.4478C1.89563 94.8024 2.4661 92.1882 3.13916 89.6081L7.00823 90.617C7.65697 88.1302 8.40631 85.6755 9.25177 83.2566L5.478 81.9384C6.36217 79.4087 7.34668 76.9178 8.42727 74.4689L12.0843 76.0833C13.1218 73.7321 14.2525 71.4199 15.4707 69.1504L11.9462 67.2597C13.2115 64.9023 14.5666 62.59 16.0086 60.3274L19.3819 62.4784C20.7636 60.3106 22.228 58.1876 23.7709 56.1145L20.5634 53.7273C22.1574 51.5855 23.8318 49.4961 25.5808 47.4614L28.6123 50.0675C30.2942 48.1109 32.0494 46.206 33.8728 44.3568L31.0257 41.5497C32.8968 39.6521 34.8369 37.8121 36.8414 36.0324L39.4965 39.0217C41.4278 37.3069 43.4215 35.6489 45.4737 34.0526L43.0182 30.8969C45.1254 29.2577 47.2914 27.6813 49.512 26.1708L51.7617 29.4771C53.8969 28.0248 56.0844 26.6343 58.3204 25.3104L56.282 21.8702C58.5813 20.5088 60.93 19.2157 63.3233 17.9929L65.1429 21.5539C67.4446 20.3779 69.7894 19.2684 72.1732 18.2304L70.5767 14.565C73.0229 13.4999 75.5087 12.5068 78.0303 11.5888L79.399 15.3453C81.8334 14.4591 84.3024 13.6453 86.8015 12.9064L85.6669 9.07323C88.2214 8.31792 90.8066 7.63926 93.4189 7.03891L94.3145 10.9342C96.8362 10.3547 99.3837 9.85097 101.953 9.42609L101.301 5.48245C103.931 5.04749 106.584 4.69141 109.256 4.41903L109.662 8.3965C112.228 8.13484 114.813 7.95244 117.412 7.85098L117.256 3.85417L117.255 3.85348C119.925 3.74925 122.609 3.73062 125.304 3.79548L125.209 7.79229C127.779 7.85414 130.359 7.99697 132.946 8.22249L133.292 4.24018C135.948 4.47166 138.611 4.78609 141.278 5.18966L140.68 9.14366C143.222 9.52831 145.768 9.99463 148.315 10.5454L149.16 6.6384C151.755 7.19969 154.351 7.84578 156.944 8.57881L155.858 12.4258C158.337 13.1266 160.814 13.9096 163.287 14.777L164.609 11.0047C167.103 11.8795 169.593 12.8362 172.073 13.8793L172.074 13.8787L170.523 17.5661C172.905 18.5677 175.281 19.6501 177.647 20.8164L179.414 17.2312C181.772 18.3936 184.121 19.6359 186.457 20.9601L184.487 24.4376C186.742 25.7159 188.987 27.0735 191.219 28.5118L193.383 25.1516C195.584 26.5695 197.77 28.0634 199.942 29.6346L197.6 32.8725C199.706 34.3955 201.797 35.9945 203.873 37.6703L206.383 34.5601C208.415 36.2006 210.431 37.9119 212.43 39.6963L209.768 42.6774C211.707 44.4077 213.63 46.2098 215.535 48.0836L218.339 45.233C220.203 47.0672 222.049 48.9693 223.878 50.9382L220.951 53.6582C222.713 55.5559 224.458 57.5197 226.185 59.5499L229.23 56.9597C230.939 58.9689 232.628 61.0416 234.299 63.1779L231.151 65.6397C232.735 67.6653 234.301 69.751 235.849 71.8973L239.092 69.5578C240.661 71.7334 242.208 73.9702 243.736 76.267L240.409 78.4816C241.817 80.5987 243.209 82.7697 244.582 84.9954L247.983 82.8975C249.301 85.0348 250.603 87.2204 251.885 89.4555C251.72 89.7255 251.556 89.9963 251.391 90.2676L248.644 91.8379C248.978 92.4218 249.31 93.0093 249.641 93.6001L250.632 95.3838L253.983 101.476L257.565 95.5163C258.262 94.3567 258.964 93.21 259.668 92.0754L257.04 90.4444C256.872 90.1425 256.705 89.8407 256.536 89.5405C257.878 87.3873 259.231 85.2778 260.597 83.2117L263.932 85.4159C265.367 83.2456 266.815 81.1243 268.275 79.0519L265.005 76.7504C266.564 74.5364 268.137 72.3762 269.724 70.269L272.918 72.6742C274.509 70.5611 276.113 68.5031 277.729 66.4994L274.616 63.99C276.274 61.9345 277.945 59.9345 279.628 57.9886L282.651 60.6036C284.403 58.5779 286.168 56.6126 287.944 54.7079L285.02 51.9816C286.83 50.0403 288.651 48.1577 290.485 46.3358L293.304 49.1732C295.182 47.3077 297.071 45.5064 298.97 43.7684L296.27 40.8198C298.247 39.0103 300.235 37.2655 302.234 35.587L304.806 38.6495C306.808 36.9681 308.821 35.3545 310.84 33.8068L308.409 30.6338C310.548 28.9951 312.696 27.4275 314.852 25.9305L317.133 29.2147C319.266 27.7337 321.408 26.3233 323.555 24.9831L321.435 21.5905C323.725 20.1612 326.022 18.8089 328.325 17.5309L330.267 21.0278C332.531 19.7708 334.8 18.5879 337.072 17.4791L335.317 13.8862C337.739 12.7043 340.164 11.6017 342.591 10.5786L344.146 14.264C346.53 13.2588 348.916 12.3329 351.301 11.4825L349.957 7.71633C352.486 6.81438 355.015 5.99659 357.541 5.25872L358.663 9.09532C361.147 8.36975 363.627 7.72561 366.102 7.15976L365.21 3.26169C367.816 2.6659 370.415 2.15439 373.007 1.72526L373.66 5.66959C376.214 5.24672 378.76 4.90661 381.294 4.64621L380.883 0.67012C383.53 0.398076 386.165 0.210007 388.785 0.104573L388.947 4.09862C391.534 3.99455 394.106 3.9738 396.66 4.03233L396.751 0.0355193C399.405 0.0963367 402.041 0.240971 404.655 0.466412L404.312 4.44941C406.888 4.67153 409.441 4.97441 411.97 5.35608L412.566 1.40278C415.195 1.79972 417.799 2.2767 420.373 2.83494L420.374 2.83563L419.526 6.74475C422.041 7.29018 424.526 7.91392 426.979 8.61264L428.074 4.76706C430.634 5.49648 433.16 6.3058 435.649 7.19083L434.311 10.957C436.73 11.8176 439.113 12.7534 441.454 13.7599L443.032 10.0869C445.477 11.1379 447.88 12.2637 450.236 13.4623L448.424 17.0254C450.715 18.191 452.96 19.4276 455.155 20.7308L457.195 17.2933C459.477 18.6481 461.708 20.0727 463.883 21.565L461.623 24.8616C463.743 26.3163 465.809 27.8371 467.816 29.4198L470.29 26.2813C472.374 27.925 474.399 29.6329 476.357 31.4037L473.677 34.3689C475.579 36.0885 477.417 37.8681 479.187 39.7039L482.064 36.9294C483.907 38.8408 485.68 40.8111 487.379 42.8383L484.315 45.4064C485.957 47.3666 487.527 49.3812 489.02 51.4451L492.26 49.1C493.814 51.2495 495.289 53.4527 496.68 55.705L493.278 57.807C494.619 59.9773 495.878 62.1942 497.052 64.4547L500.599 62.6131C501.819 64.9632 502.95 67.3595 503.989 69.7981L500.313 71.3656C501.309 73.7034 502.216 76.0809 503.031 78.4947L506.817 77.2172C507.661 79.7186 508.41 82.258 509.059 84.8324L505.184 85.8088C505.804 88.27 506.33 90.7641 506.757 93.2873L510.698 92.6209C511.135 95.21 511.473 97.8287 511.708 100.474L507.727 100.827C507.95 103.343 508.075 105.885 508.098 108.449L512.094 108.413C512.119 111.04 512.041 113.688 511.857 116.357L507.87 116.083C507.698 118.586 507.428 121.109 507.058 123.647L511.012 124.224C510.632 126.835 510.151 129.462 509.562 132.1L505.66 131.229C505.117 133.663 504.48 136.11 503.747 138.567L507.576 139.71C506.826 142.225 505.981 144.749 505.033 147.279L501.289 145.876C500.41 148.223 499.44 150.579 498.378 152.94L502.023 154.58C500.951 156.964 499.787 159.35 498.532 161.739L494.995 159.88C493.823 162.109 492.568 164.342 491.226 166.576L494.652 168.634C493.306 170.874 491.876 173.113 490.362 175.35L487.053 173.11C485.64 175.198 484.148 177.287 482.578 179.373L485.772 181.777C484.193 183.876 482.537 185.973 480.802 188.064L477.725 185.511C476.121 187.445 474.446 189.377 472.699 191.306L475.661 193.989C473.877 195.959 472.023 197.926 470.093 199.885L467.245 197.079C465.493 198.859 463.677 200.634 461.798 202.405L464.539 205.315C462.628 207.115 460.653 208.908 458.613 210.695L455.98 207.69C454.978 208.568 453.96 209.445 452.926 210.32L452.799 210.427L449.891 213.335L452.72 216.164L447.141 221.742L444.312 218.914L438.733 224.494L441.561 227.322L435.982 232.902L433.153 230.073L427.574 235.653L430.402 238.481L424.823 244.06L421.995 241.231L416.415 246.811L419.244 249.639L413.664 255.219L410.836 252.39L405.257 257.969L408.086 260.798L402.506 266.377L399.678 263.549L394.098 269.128L396.927 271.957L391.347 277.536L388.519 274.708L382.94 280.287L385.768 283.115L380.189 288.695L377.36 285.866L371.781 291.446L374.609 294.274L369.03 299.853L366.202 297.025L360.622 302.604L363.451 305.432L357.871 311.012L355.043 308.184L349.463 313.763L352.292 316.591L346.713 322.17L343.885 319.342L338.305 324.921L341.133 327.75L335.554 333.329L332.725 330.501L327.147 336.08L329.975 338.908L324.396 344.488L321.567 341.659L315.988 347.239L318.816 350.067L313.237 355.647L310.408 352.818L304.829 358.397L307.658 361.226L302.078 366.805L299.25 363.977L293.67 369.556L296.499 372.385L290.919 377.964L288.091 375.136L282.512 380.714L285.34 383.543L279.761 389.122L276.932 386.294L271.353 391.873L274.181 394.702L268.603 400.281L265.774 397.452L260.195 403.032L263.023 405.86L257.482 411.401L254.685 408.604L254.646 408.642L254.615 408.611L251.825 411.401L246.263 405.839L249.091 403.01L243.497 397.416L240.669 400.245L235.076 394.652L237.904 391.823L232.31 386.229L229.482 389.057L223.888 383.464L226.717 380.636L221.123 375.042L218.294 377.87L212.701 372.277L215.529 369.448L209.935 363.854L207.107 366.683L201.514 361.089L204.342 358.261L198.748 352.667L195.92 355.495L190.326 349.902L193.155 347.074L187.561 341.48L184.732 344.308L179.139 338.715L181.967 335.886L176.373 330.292L173.545 333.121L167.952 327.527L170.78 324.699L165.186 319.105L162.358 321.933L156.764 316.34L159.593 313.512L153.999 307.918L151.17 310.746L145.577 305.153L148.405 302.324L142.811 296.73L139.983 299.559L134.39 293.965L137.218 291.137L131.624 285.543L128.796 288.371L123.202 282.778L126.031 279.95L120.437 274.356L117.608 277.184L112.015 271.591L114.843 268.762L109.249 263.168L106.421 265.997L100.828 260.403L103.656 257.575L98.062 251.981L95.2336 254.809L89.6403 249.216L92.4687 246.388L86.8747 240.794L84.0463 243.622L78.4529 238.029L81.2814 235.2L75.6874 229.606L72.8589 232.435L67.2656 226.841L70.094 224.013L64.5 218.419L61.6716 221.247L56.0783 215.654L58.9067 212.826L56.0037 209.923Z" stroke="black" stroke-opacity="0.21" stroke-width="8" stroke-dasharray="8 8"/>
</svg>
